HIERARCHY
ROOT hip
{
	OFFSET 0.000000 0.000000 0.000000
	CHANNELS 6 Xposition Yposition Zposition Xrotation Zrotation Yrotation 
	JOINT abdomen
	{
		OFFSET 0.000000 3.422050 0.000000
		CHANNELS 3 Xrotation Zrotation Yrotation 
		JOINT chest
		{
			OFFSET 0.000000 8.486693 -0.684411
			CHANNELS 3 Xrotation Zrotation Yrotation 
			JOINT neck
			{
				OFFSET 0.000000 10.266162 -0.273764
				CHANNELS 3 Xrotation Zrotation Yrotation 
				JOINT head
				{
					OFFSET 0.000000 3.148285 0.000000
					CHANNELS 3 Xrotation Zrotation Yrotation 
					End Site
					{
						OFFSET 0.000000 3.148289 0.000000
					}
				}
			}
			JOINT lCollar
			{
				OFFSET 3.422053 6.707223 -0.821293
				CHANNELS 3 Yrotation Zrotation Xrotation 
				JOINT lShldr
				{
					OFFSET 3.285171 0.000000 0.000000
					CHANNELS 3 Zrotation Yrotation Xrotation 
					JOINT lForeArm
					{
						OFFSET 10.129278 0.000000 0.000000
						CHANNELS 3 Yrotation Zrotation Xrotation 
						JOINT lHand
						{
							OFFSET 8.486692 0.000000 0.000000
							CHANNELS 3 Zrotation Yrotation Xrotation 
							End Site
							{
								OFFSET 4.106464 0.000000 0.000000
							}
						}
					}
				}
			}
			JOINT rCollar
			{
				OFFSET -3.558935 6.707223 -0.821293
				CHANNELS 3 Yrotation Zrotation Xrotation 
				JOINT rShldr
				{
					OFFSET -3.148289 0.000000 0.000000
					CHANNELS 3 Zrotation Yrotation Xrotation 
					JOINT rForeArm
					{
						OFFSET -10.266159 0.000000 0.000000
						CHANNELS 3 Yrotation Zrotation Xrotation 
						JOINT rHand
						{
							OFFSET -8.349810 0.000000 0.000000
							CHANNELS 3 Zrotation Yrotation Xrotation 
							End Site
							{
								OFFSET -4.106464 0.000000 0.000000
							}
						}
					}
				}
			}
		}
	}
	JOINT lThigh
	{
		OFFSET 5.338403 -1.642589 1.368821
		CHANNELS 3 Xrotation Zrotation Yrotation 
		JOINT lShin
		{
			OFFSET -2.053232 -20.121670 0.000000
			CHANNELS 3 Xrotation Zrotation Yrotation 
			JOINT lFoot
			{
				OFFSET 0.000000 -19.300380 -1.231939
				CHANNELS 3 Xrotation Yrotation Zrotation 
				End Site
				{
					OFFSET 0.000000 -2.463878 4.653993
				}
			}
		}
	}
	JOINT rThigh
	{
		OFFSET -5.338403 -1.642589 1.368821
		CHANNELS 3 Xrotation Zrotation Yrotation 
		JOINT rShin
		{
			OFFSET 2.053232 -20.121670 0.000000
			CHANNELS 3 Xrotation Zrotation Yrotation 
			JOINT rFoot
			{
				OFFSET 0.000000 -19.300380 -1.231939
				CHANNELS 3 Xrotation Yrotation Zrotation 
				End Site
				{
					OFFSET 0.000000 -2.463878 4.653993
				}
			}
		}
	}
}
MOTION
Frames: 11
Frame Time: 0.039963
0.000000 43.528500 0.000000 0.000000 0.000000 0.000000 0.000000 0.000000 0.000000 0.000000 0.000000 0.000000 0.000000 0.000000 0.000000 0.000000 0.000000 0.000000 0.000000 0.000000 0.000000 0.000000 0.000000 0.000000 0.000000 0.000000 0.000000 0.000000 0.000000 0.000000 0.000000 0.000000 0.000000 0.000000 0.000000 0.000000 0.000000 0.000000 0.000000 0.000000 0.000000 0.000000 0.000000 0.000000 0.000000 0.000000 0.000000 0.000000 0.000000 0.000000 0.000000 0.000000 0.000000 0.000000 0.000000 0.000000 0.000000 0.000000 0.000000 0.000000 
0.321395 5.161747 -0.303371 -92.002686 0.000000 0.000000 -7.870366 0.143578 -0.639089 12.493999 4.341764 -0.043780 0.000000 0.000000 0.000000 5.235779 4.076582 0.020083 -20.199368 -11.958971 1.678608 87.589165 1.290614 -51.946144 -100.315460 17.903414 -4.430561 -11.086097 11.969374 -39.396233 -2.193146 5.464672 0.137942 58.491699 -0.892752 -27.360909 -14.255272 28.709808 49.968224 -10.171097 3.910603 -3.410066 9.648088 7.463741 23.797915 4.174446 -2.621742 0.060197 42.571587 -26.788559 12.062559 -36.383846 1.727760 -8.166446 96.089569 -9.453815 -18.495384 15.051308 17.096630 -3.568071 
0.321395 5.161747 -0.303371 -92.002686 0.000000 0.000000 -7.870366 0.143578 -0.639089 12.493999 4.341763 -0.043780 0.000000 0.000000 0.000000 5.235778 4.076582 0.020083 -20.199368 -11.958971 1.678608 87.589165 1.290614 -51.946144 -100.315460 17.903414 -4.430561 -11.086097 11.969375 -39.396229 -2.193146 5.464672 0.137942 58.491699 -0.892753 -27.360909 -14.255272 28.709808 49.968224 -10.171097 3.910603 -3.410066 9.648087 7.463741 23.797911 4.174444 -2.621721 0.060269 41.722466 -26.969706 11.761486 -36.383846 1.727760 -8.166446 96.089569 -9.453813 -18.495382 15.051308 17.096628 -3.568071 
0.321395 5.161747 -0.303371 -92.002686 0.000000 0.000000 -7.870366 0.143578 -0.639089 12.493999 4.341764 -0.043780 0.000000 0.000000 0.000000 5.235779 4.076582 0.020083 -20.199368 -11.958972 1.678609 87.589165 1.290614 -51.946144 -100.315460 17.903414 -4.430561 -11.086097 11.969374 -39.396233 -2.193146 5.464673 0.137942 58.491707 -0.892751 -27.360909 -14.255272 28.709808 49.968224 -10.171097 3.910603 -3.410066 9.648088 7.463741 23.797915 4.174442 -2.621700 0.060340 40.869118 -27.147209 11.456296 -36.383846 1.727760 -8.166446 96.089569 -9.453815 -18.495384 15.051309 17.096630 -3.568071 
0.321395 5.161747 -0.303371 -92.002686 0.000000 0.000000 -7.870365 0.143578 -0.639089 12.493999 4.341764 -0.043780 0.000000 0.000000 0.000000 5.235779 4.076582 0.020083 -20.199368 -11.958970 1.678608 87.589165 1.290616 -51.946144 -100.315445 17.903414 -4.430562 -11.086097 11.969373 -39.396233 -2.193146 5.464672 0.137942 58.491699 -0.892751 -27.360907 -14.255271 28.709808 49.968220 -10.171096 3.910603 -3.410066 9.648087 7.463741 23.797911 4.174440 -2.621679 0.060412 40.011650 -27.320986 11.147058 -36.383846 1.727760 -8.166446 96.089569 -9.453815 -18.495382 15.051306 17.096628 -3.568071 
0.321395 5.161747 -0.303371 -92.002693 0.000000 0.000000 -7.870366 0.143578 -0.639089 12.493999 4.341764 -0.043780 0.000000 0.000000 0.000000 5.235779 4.076583 0.020083 -20.199368 -11.958971 1.678608 87.589172 1.290616 -51.946148 -100.315468 17.903418 -4.430562 -11.086098 11.969374 -39.396233 -2.193146 5.464672 0.137942 58.491699 -0.892752 -27.360909 -14.255273 28.709808 49.968227 -10.171098 3.910603 -3.410066 9.648088 7.463742 23.797916 4.174439 -2.621658 0.060484 39.150143 -27.490944 10.833838 -36.383846 1.727760 -8.166446 96.089569 -9.453816 -18.495386 15.051308 17.096630 -3.568071 
0.321395 5.161747 -0.303371 -92.002678 0.000000 0.000000 -7.870365 0.143578 -0.639089 12.493999 4.341764 -0.043780 0.000000 0.000000 0.000000 5.235779 4.076582 0.020083 -20.199368 -11.958971 1.678608 87.589165 1.290614 -51.946144 -100.315460 17.903414 -4.430561 -11.086096 11.969372 -39.396233 -2.193146 5.464672 0.137942 58.491699 -0.892753 -27.360909 -14.255272 28.709808 49.968224 -10.171096 3.910603 -3.410066 9.648088 7.463741 23.797915 4.174438 -2.621637 0.060556 38.284687 -27.656994 10.516704 -36.383846 1.727760 -8.166446 96.089569 -9.453815 -18.495384 15.051308 17.096628 -3.568071 
0.321395 5.161747 -0.303371 -92.002686 0.000000 0.000000 -7.870366 0.143578 -0.639089 12.493999 4.341764 -0.043780 0.000000 0.000000 0.000000 5.235780 4.076582 0.020083 -20.199369 -11.958971 1.678609 87.589165 1.290614 -51.946144 -100.315460 17.903414 -4.430561 -11.086097 11.969374 -39.396233 -2.193146 5.464673 0.137942 58.491707 -0.892752 -27.360909 -14.255274 28.709812 49.968224 -10.171097 3.910603 -3.410066 9.648088 7.463741 23.797916 4.174436 -2.621616 0.060628 37.415405 -27.819059 10.195734 -36.383846 1.727760 -8.166446 96.089569 -9.453815 -18.495384 15.051309 17.096632 -3.568072 
0.321395 5.161747 -0.303371 -92.002686 0.000000 0.000000 -7.870366 0.143578 -0.639089 12.493999 4.341764 -0.043780 0.000000 0.000000 0.000000 5.235779 4.076582 0.020083 -20.199368 -11.958971 1.678608 87.589165 1.290614 -51.946144 -100.315460 17.903414 -4.430561 -11.086097 11.969374 -39.396233 -2.193146 5.464672 0.137942 58.491699 -0.892752 -27.360909 -14.255272 28.709808 49.968224 -10.171097 3.910603 -3.410066 9.648088 7.463741 23.797915 4.174434 -2.621595 0.060699 36.542385 -27.977047 9.871008 -36.383846 1.727760 -8.166446 96.089569 -9.453815 -18.495384 15.051308 17.096630 -3.568071 
0.321395 5.161747 -0.303371 -92.002686 0.000000 0.000000 -7.870365 0.143578 -0.639089 12.493999 4.341764 -0.043780 0.000000 0.000000 0.000000 5.235778 4.076582 0.020083 -20.199366 -11.958970 1.678608 87.589165 1.290614 -51.946140 -100.315445 17.903412 -4.430559 -11.086097 11.969375 -39.396233 -2.193146 5.464672 0.137942 58.491699 -0.892754 -27.360907 -14.255271 28.709808 49.968216 -10.171097 3.910603 -3.410066 9.648088 7.463740 23.797913 4.174431 -2.621573 0.060771 35.665733 -28.130867 9.542606 -36.383846 1.727760 -8.166446 96.089569 -9.453815 -18.495384 15.051308 17.096630 -3.568071 
0.321395 5.161747 -0.303371 -92.002686 0.000000 0.000000 -7.870366 0.143578 -0.639089 12.493999 4.341764 -0.043780 0.000000 0.000000 0.000000 5.235779 4.076582 0.020083 -20.199368 -11.958971 1.678608 87.589165 1.290612 -51.946148 -100.315460 17.903416 -4.430562 -11.086097 11.969374 -39.396233 -2.193146 5.464672 0.137942 58.491699 -0.892752 -27.360909 -14.255272 28.709808 49.968224 -10.171097 3.910603 -3.410066 9.648088 7.463741 23.797915 4.174431 -2.621553 0.060843 34.785564 -28.280443 9.210618 -36.383846 1.727761 -8.166446 96.089569 -9.453815 -18.495384 15.051308 17.096630 -3.568071 
